<svg xmlns="http://www.w3.org/2000/svg" viewBox="0 0 180 36" width="180" height="36">
  <rect x="0" y="2" width="32" height="32" rx="6" fill="#e8590c"/>
  <path d="M9 8h8c3.3 0 6 1.8 6 4.5S20.3 17 17 17h-8zm0 9h8c3.9 0 7 2 7 5s-3.1 5-7 5H9z" fill="#fff"/>
  <path d="M44 10.5h5.8c2.4 0 4.2.6 5.4 1.7 1 .9 1.5 2.2 1.5 3.7v.1c0 2.6-1.4 4.2-3.5 5l4 5.8h-3.8l-3.5-5.2h-2.7v5.2H44zm5.6 8.3c2 0 3.2-.9 3.2-2.6v-.1c0-1.7-1.2-2.6-3.2-2.6h-2.4v5.3zM58.4 20v-.1c0-4 3.2-7.3 7.5-7.3s7.4 3.2 7.4 7.2v.1c0 4-3.2 7.3-7.5 7.3s-7.4-3.2-7.4-7.2zm11.6 0v-.1c0-2.4-1.7-4.5-4.2-4.5-2.4 0-4.1 2-4.1 4.4v.1c0 2.4 1.7 4.5 4.2 4.5 2.4 0 4.1-2 4.1-4.4zM75.4 20v-.1c0-4 3.2-7.3 7.5-7.3s7.4 3.2 7.4 7.2v.1c0 4-3.2 7.3-7.5 7.3s-7.4-3.2-7.4-7.2zm11.6 0v-.1c0-2.4-1.7-4.5-4.2-4.5-2.4 0-4.1 2-4.1 4.4v.1c0 2.4 1.7 4.5 4.2 4.5 2.4 0 4.1-2 4.1-4.4zM93 12.8h3v2c.9-1.2 2.2-2.3 4.3-2.3 2 0 3.5.9 4.3 2.4 1.2-1.5 2.7-2.4 4.8-2.4 3.1 0 5 1.9 5 5.3v9h-3.2v-7.9c0-2.2-1.1-3.4-3-3.4s-3.1 1.3-3.1 3.5v7.8h-3.2v-8c0-2.1-1.1-3.3-3-3.3s-3.1 1.4-3.1 3.5v7.8H93zM117.8 23.7c0-3.2 2.6-4.8 6.3-4.8 1.6 0 2.8.2 3.9.6v-.4c0-2-1.3-3.1-3.6-3.1-1.5 0-2.8.4-4 1l-1-2.4c1.5-.8 3.2-1.3 5.4-1.3 2.1 0 3.7.6 4.7 1.6 1.1 1 1.6 2.5 1.6 4.4v7.5H128v-1.8c-1 1.3-2.6 2.1-4.7 2.1-2.8 0-5.5-1.6-5.5-4.4zm10.3-1.1v-1.1c-.9-.3-2-.6-3.4-.6-2.2 0-3.5 1-3.5 2.5v.1c0 1.5 1.3 2.3 3 2.3 2.3 0 3.9-1.3 3.9-3.2zM133 24.3l1.6-2.2c1.5 1.2 3 1.8 4.7 1.8 1.5 0 2.3-.6 2.3-1.6v-.1c0-1-.7-1.5-3.3-2-3.3-.7-5.2-1.7-5.2-4.6v-.1c0-2.7 2.2-4.5 5.3-4.5 2.2 0 4 .6 5.5 1.8l-1.4 2.3c-1.3-.9-2.7-1.4-4.1-1.4-1.4 0-2.1.7-2.1 1.5v.1c0 1.1.8 1.5 3.4 2.1 3.3.7 5.1 1.8 5.1 4.5v.1c0 2.9-2.3 4.6-5.5 4.6-2.4 0-4.6-.8-6.3-2.3zM148 12.8h3.2v3.3c.8-2.2 2.3-3.7 4.8-3.6v3.4h-.2c-2.8 0-4.6 1.8-4.6 5.5v5.4H148z" fill="#1a1d21"/>
</svg>
